
<svg width="250" height="325" xmlns="http://www.w3.org/2000/svg" xmlns:svg="http://www.w3.org/2000/svg">
 <g>
  <g id="svg_1">
   <g id="svg_2">
    <path class="st0" fill="#ffffff" d="m242,170c0,52.7 0,105.3 0,158c-80.7,0 -161.3,0 -242,0c0,-107.3 0,-214.7 0,-322c51.7,0 103.3,0 155,0c-1.1,2.3 -3.3,0.2 -4.7,1.2c-0.9,0.9 -1.6,1.9 -3.3,1.9c-1,0 -2.1,1 -3,1.7c-0.8,0.6 -1.5,1.4 -2.2,2.1c-2.5,2.4 -5.7,4.4 -7.3,7.3c-2.4,4.3 -5.8,7.5 -8.4,11.5c0,0.6 -0.1,1.3 -0.1,1.8c-1.4,0.6 -2.7,1.2 -3.8,1.7c-0.2,2 -1.7,2.7 -3,3.6c-1.3,0.9 -2.5,2 -3.9,3c-2.1,0 -4.5,0 -6.3,0c-2.5,1.2 -4.5,2.3 -6.7,3.4c-0.9,3.5 -5,4.5 -6.8,7.7c-3.2,-0.9 -5.6,0.9 -8.1,2.9c-2.3,1.8 -3.6,4.1 -5.3,6.8c0,1 0,2.5 0,3.7c-0.6,0.6 -1.1,1.1 -1.6,1.6c-0.1,0.1 -0.3,0.2 -0.3,0.4c-0.1,0.3 0,0.7 0,1c-0.2,2.4 -0.9,4.2 -3.4,5.7c-2.6,1.6 -5.1,4 -5.7,7.5c-0.1,0.6 -0.5,1.2 -0.8,1.7c-1.4,1.9 -3,3.7 -4.1,5.8c-1.4,2.6 -4.5,3.4 -5.8,6c-0.4,0.7 -1.9,0.8 -3,1.1c-1.4,0.5 -1.9,2.4 -3.3,2.7c-3.8,1 -7,3.4 -8.6,6.5c-1.7,3.3 -4.3,5.5 -6.4,8.2c0.4,7.1 -3.7,12.6 -6.3,19c-0.7,0.9 -1.9,2 -2.6,3.4c-2,3.8 -3.4,7.9 -5.1,11.9c-1.4,3.2 -3,6.3 -6.4,8.4c-2.4,1.5 -5,2.4 -6.9,3.4c-2.4,-0.4 -4.2,-0.6 -5.4,-0.8c-1.7,1.6 -2.9,2.7 -3.7,3.4c-0.5,2.4 -0.9,4.4 -1.3,6.5c1.4,3.5 2.9,7 4.7,11.5c1.3,1.1 3.3,2.9 5.6,4.5c4.1,2.7 6.8,2.8 11.5,0.7c3.1,-1.4 6.1,-2.9 9.3,-4.2c2.2,-1 4.1,-2.2 5.9,-3.8c3.1,-2.7 6.5,-4.9 9.2,-6.9c1.6,-3.1 2.9,-5.7 4.5,-9c1,-1 2.5,-2.5 4.1,-4.1c-0.4,-3.6 3.8,-3.8 4.8,-6.5c-0.1,3.5 -0.4,6.8 -0.6,10.1c-0.3,3.5 0.7,7.1 -0.8,10.5c1.2,3.1 1.1,6.5 1.6,8.4c2.2,4.7 3.8,8.2 5.3,11.3c2.6,1.9 4.9,3.5 7.1,5.4c0.8,0.7 1.1,1.8 1.6,2.6c-0.3,0.8 -0.7,1.5 -0.8,2.2c-0.1,2.7 -0.2,5.3 0,8c0.2,2.7 0.2,5.5 1.1,8c0.8,2.4 0.6,4.7 0.9,7.1c0.2,1.8 0.6,3.9 1.7,5.2c1.3,1.5 1.3,2.9 1.3,4.4c-2.8,3.5 -6.5,4.8 -10.7,5.7c-2.1,0.5 -4.4,0.8 -6.6,2.3c-3.4,2.4 -5.9,5.6 -9,8.3c-1.7,1.5 -2.9,3.2 -3.9,5.4c-1.4,3.4 -3,7.1 -5.5,9.6c-2.4,2.5 -3.7,5.6 -6.3,8c-2.6,2.4 -4.2,5.8 -6.3,8.8c-2.3,0.1 -1.9,3.4 -4.5,3.6c-1.4,0.1 -1.5,2.9 -3.4,3.4c-0.4,0.1 -0.7,1 -0.8,1.6c-0.2,1.1 -0.2,2.3 -0.2,3.4c0,2 0,4 0,5.7c1.3,2 2.3,3.7 3.5,5.5c3.6,0.9 6,5.1 9.6,4.3c5.8,4.8 11.8,7.2 18.1,9.8c1.8,0 4,0 6.2,0c3.4,0 6.8,0.3 9.8,-1.7c0.3,-0.2 0.6,-0.3 0.9,-0.3c3.8,-0.4 7.7,-0.8 11.6,-1.2c1.7,-0.9 3.5,-1.9 5.2,-2.8c0.8,-2.8 -0.2,-4.9 -2.1,-6.9c-2.3,-0.4 -4.7,-0.9 -7.1,-1.4c-4.3,-2.5 -9.7,-2.6 -13.5,-6.1c0,-1.7 0,-3.4 0,-5c0.3,-0.4 0.7,-0.7 1,-1.1c1.5,-2.1 2.5,-4.3 4.8,-6.1c2.9,-2.2 6.5,-3.5 8.9,-6.4c1.7,-2.1 4.1,-3.6 6.2,-5.4c1.4,-1.1 2.8,-2.1 4.2,-3.2c2.2,-1.9 4.6,-3.5 6.8,-5.2c1.9,-1.4 3.9,-2.7 4.9,-3.6c2.4,-0.9 3.8,-1.4 5.1,-1.9c0.7,-4.1 4.8,-6.2 5.2,-10.4c1.6,-1.8 3.6,-3.5 4,-6.6c0.3,-2 2.4,-3.7 3.9,-5.8c0,-0.9 0,-2.2 0,-3.6c0.5,-0.1 0.9,-0.2 1.8,-0.4c0.5,-1.7 1,-3.6 1.3,-4.7c1.6,-1.7 2.7,-2.9 3.9,-4.1c0.6,0 1.5,0 2.4,0c2.5,3.1 7.2,4.2 8.3,8.7c-2.5,1.6 2.6,4.3 -0.9,5.7c0.3,0.3 0.8,0.6 0.8,0.8c0,5.8 0,11.6 0,17.3c0.8,0.5 1.1,1 1.3,1.6c0.5,1.6 1,3.3 1.6,4.9c1.2,3.5 3.9,6.1 6,9c2,2.7 3.5,5.5 4.4,8.7c0.5,1.8 0.4,3.8 1.1,5.6c1.3,3.3 2,6.6 2,10.2c-0.1,4.5 -0.1,9 0,13.5c0,1.1 0.3,2.2 0.5,3.2c0.5,3.7 2.6,6.6 4,9.8c5.7,2 11.5,0.4 16.8,1.1c4.5,-2.5 6.2,-3.1 10.1,-3.1c5,0 10,0 14,0c2.6,-1.3 4.5,-2 6.2,-3c2.2,-1.2 4.8,-1.8 6.6,-3.2c1.5,-1.1 2.9,-2.7 4.5,-3.7c2.3,-1.4 3.9,-3.2 5.6,-5.3c-1.5,-1.3 -2.7,-2.4 -4,-3.5c-1.5,-0.4 -3.1,-0.8 -3.8,-1c-2,0.3 -3.5,1 -3.9,0.6c-1.3,-1.4 -2.8,-0.8 -4.2,-0.9c-2.7,-0.1 -5.3,0 -7.9,0c-3.6,-2.1 -7.1,-4.1 -10.4,-6c-0.2,-1.5 0.1,-3 -0.5,-3.7c-1.9,-2.2 -1.6,-4.8 -1.6,-7.4c0,-4.8 0,-9.7 0,-14.5c0,-1 0.3,-2.2 -0.1,-2.9c-1.7,-2.5 -0.5,-5.1 -0.9,-7.7c2.4,-2.9 -0.8,-5.7 -0.2,-8.6c-2.5,-2.4 -1.3,-6.1 -2.7,-8.9c-0.6,-1.2 -1.1,-2.7 -1,-4.1c0.5,-5.1 -1.5,-10 -1.3,-14.9c-0.6,-1.6 -3,-1.8 -2.8,-3.9c-2.5,-2.7 -3.6,-6.2 -5.5,-9.2c-1.6,-2.6 -2.8,-4.9 -2.5,-7.5c-1.6,-3.1 -3.4,-5.6 -4.6,-8.6c-1.2,-3 -4.2,-5.2 -6.4,-7.8c0,-0.7 0.2,-1.7 -0.2,-2c-1.4,-1.1 -1.7,-2.6 -2.2,-4.2c-0.4,-1.3 -1.4,-2.6 -2.4,-3.5c-2,-1.7 -3.3,-4.1 -4,-6.3c-0.7,-2.3 -1.7,-4.4 -2.7,-6.4c-1.2,-2.2 -1.9,-4.3 -1,-6.6c0.9,-2.1 1.9,-4.2 2.8,-6.4c3.2,-0.7 4,-3.9 6.2,-6.3c1.5,0.3 3.1,0.6 5,0.9c2.8,-2.2 5.9,-0.1 8.2,0.2c3.4,1.3 4,5.3 7.7,5c1.1,2.9 4.3,3.3 6.4,4.8c2.1,1.5 5.2,1.8 7.8,2.7c1.3,0.5 2.8,0.4 4.2,0.9c2.2,0.8 3.9,2.3 6.4,2.7c2.4,0.4 4.5,2 6.8,2.8c2.4,0.9 4.2,2.3 4.9,4.6c0.5,1.7 1.8,2.2 2.6,3.4c3.1,-0.2 6,1.7 9.1,1c2.9,-0.7 5.7,-1.5 8.3,-2.1c0.2,-0.9 0.3,-1.3 0.4,-1.9c2.9,0 5.7,0 8,0c0.7,-0.1 1.5,-0.7 2.3,-1.2z" id="svg_3"/>
    <path d="m242,170c-0.8,0.5 -1.6,1.1 -2.8,1.9c-2.3,0 -5.1,0 -8,0c-0.1,0.6 -0.2,1 -0.4,1.9c-2.6,0.7 -5.4,1.5 -8.3,2.1c-3.1,0.7 -6,-1.2 -9.1,-1c-0.7,-1.2 -2.1,-1.8 -2.6,-3.4c-0.7,-2.3 -2.5,-3.7 -4.9,-4.6c-2.3,-0.8 -4.4,-2.4 -6.8,-2.8c-2.5,-0.4 -4.2,-2 -6.4,-2.7c-1.3,-0.5 -2.9,-0.4 -4.2,-0.9c-2.6,-0.8 -5.7,-1.1 -7.8,-2.7c-2.2,-1.5 -5.3,-1.9 -6.4,-4.8c-3.7,0.3 -4.3,-3.8 -7.7,-5c-2.3,-0.3 -5.4,-2.4 -8.2,-0.2c-1.9,-0.3 -3.5,-0.7 -5,-0.9c-2.2,2.4 -2.9,5.6 -6.2,6.3c-0.9,2.1 -1.9,4.3 -2.8,6.4c-1,2.3 -0.2,4.4 1,6.6c1.1,2 2,4.1 2.7,6.4c0.7,2.3 2,4.6 4,6.3c1.1,0.9 2,2.2 2.4,3.5c0.5,1.6 0.8,3 2.2,4.2c0.3,0.3 0.1,1.3 0.2,2c2.2,2.5 5.1,4.8 6.4,7.8c1.2,2.9 3,5.4 4.6,8.6c-0.3,2.6 0.9,4.9 2.5,7.5c1.9,3 3,6.5 5.5,9.2c-0.2,2.1 2.2,2.3 2.8,3.9c-0.3,5 1.8,9.8 1.3,14.9c-0.1,1.3 0.4,2.8 1,4.1c1.4,2.8 0.2,6.4 2.7,8.9c-0.5,2.9 2.7,5.6 0.2,8.6c0.4,2.5 -0.8,5.2 0.9,7.7c0.5,0.7 0.1,1.9 0.1,2.9c0,4.8 0,9.7 0,14.5c0,2.6 -0.3,5.1 1.6,7.4c0.6,0.7 0.3,2.2 0.5,3.7c3.2,1.9 6.7,3.9 10.4,6c2.5,0 5.2,-0.1 7.9,0c1.4,0 2.9,-0.5 4.2,0.9c0.4,0.4 2,-0.3 3.9,-0.6c0.7,0.2 2.4,0.6 3.8,1c1.3,1.1 2.5,2.2 4,3.5c-1.7,2.1 -3.3,3.9 -5.6,5.3c-1.6,1 -3,2.6 -4.5,3.7c-1.8,1.4 -4.5,1.9 -6.6,3.2c-1.7,1 -3.6,1.8 -6.2,3c-4,0 -9,0 -14,0c-3.9,0 -5.6,0.5 -10.1,3.1c-5.4,-0.6 -11.2,1 -16.8,-1.1c-1.4,-3.2 -3.4,-6.1 -4,-9.8c-0.1,-1 -0.5,-2.2 -0.5,-3.2c-0.1,-4.5 -0.1,-9 0,-13.5c0.1,-3.6 -0.7,-6.9 -2,-10.2c-0.7,-1.7 -0.6,-3.7 -1.1,-5.6c-0.9,-3.2 -2.4,-6 -4.4,-8.7c-2.2,-2.9 -4.8,-5.5 -6,-9c-0.6,-1.6 -1,-3.2 -1.6,-4.9c-0.2,-0.6 -0.5,-1.1 -1.3,-1.6c0,-5.8 0,-11.6 0,-17.3c0,-0.2 -0.4,-0.5 -0.8,-0.8c3.5,-1.4 -1.6,-4.1 0.9,-5.7c-1.1,-4.5 -5.8,-5.6 -8.3,-8.7c-0.9,0 -1.8,0 -2.4,0c-1.2,1.3 -2.3,2.5 -3.9,4.1c-0.3,1.1 -0.8,3 -1.3,4.7c-0.9,0.2 -1.3,0.3 -1.8,0.4c0,1.4 0,2.8 0,3.6c-1.5,2.2 -3.6,3.9 -3.9,5.8c-0.4,3.1 -2.4,4.8 -4,6.6c-0.5,4.2 -4.5,6.3 -5.2,10.4c-1.3,0.5 -2.7,1 -5.1,1.9c-1,0.9 -3,2.2 -4.9,3.6c-2.3,1.6 -4.7,3.3 -6.8,5.2c-1.3,1.1 -2.8,2.1 -4.2,3.2c-2.1,1.7 -4.5,3.3 -6.2,5.4c-2.4,3 -6,4.3 -8.9,6.4c-2.3,1.7 -3.3,4 -4.8,6.1c-0.3,0.4 -0.7,0.7 -1,1.1c0,1.6 0,3.3 0,5c3.8,3.5 9.2,3.6 13.5,6.1c2.4,0.5 4.9,1 7.1,1.4c1.9,2 2.9,4.1 2.1,6.9c-1.7,0.9 -3.5,1.9 -5.2,2.8c-3.9,0.4 -7.7,0.8 -11.6,1.2c-0.3,0 -0.6,0.2 -0.9,0.3c-3,1.9 -6.4,1.7 -9.8,1.7c-2.2,0 -4.3,0 -6.2,0c-6.3,-2.6 -12.4,-5 -18.1,-9.8c-3.6,0.8 -5.9,-3.4 -9.6,-4.3c-1.1,-1.8 -2.2,-3.5 -3.5,-5.5c0,-1.7 0,-3.7 0,-5.7c0,-1.1 0.1,-2.3 0.2,-3.4c0.1,-0.6 0.4,-1.5 0.8,-1.6c1.9,-0.6 2,-3.3 3.4,-3.4c2.5,-0.3 2.1,-3.6 4.5,-3.6c2,-3 3.7,-6.4 6.3,-8.8c2.6,-2.4 3.8,-5.5 6.3,-8c2.5,-2.6 4.1,-6.2 5.5,-9.6c0.9,-2.2 2.2,-3.9 3.9,-5.4c3.1,-2.7 5.6,-5.9 9,-8.3c2.1,-1.5 4.4,-1.8 6.6,-2.3c4.2,-0.9 7.9,-2.2 10.7,-5.7c0,-1.5 0,-2.9 -1.3,-4.4c-1.1,-1.3 -1.4,-3.4 -1.7,-5.2c-0.3,-2.4 -0.1,-4.7 -0.9,-7.1c-0.9,-2.5 -0.9,-5.3 -1.1,-8c-0.2,-2.7 -0.1,-5.3 0,-8c0,-0.7 0.5,-1.4 0.8,-2.2c-0.4,-0.8 -0.8,-1.9 -1.6,-2.6c-2.2,-1.8 -4.5,-3.5 -7.1,-5.4c-1.5,-3.1 -3.1,-6.6 -5.3,-11.3c-0.5,-1.8 -0.4,-5.2 -1.6,-8.4c1.5,-3.4 0.5,-7 0.8,-10.5c0.3,-3.3 0.6,-6.7 0.6,-10.1c-1,2.6 -5.1,2.8 -4.8,6.5c-1.5,1.5 -3.1,3.1 -4.1,4.1c-1.6,3.3 -2.9,5.9 -4.5,9c-2.7,2 -6.2,4.2 -9.2,6.9c-1.8,1.6 -3.7,2.9 -5.9,3.8c-3.1,1.3 -6.2,2.8 -9.3,4.2c-4.7,2.1 -7.4,2 -11.5,-0.7c-2.3,-1.5 -4.3,-3.4 -5.6,-4.5c-1.8,-4.5 -3.3,-8.1 -4.7,-11.5c0.4,-2.1 0.8,-4.1 1.3,-6.5c0.8,-0.8 2,-1.9 3.7,-3.4c1.2,0.2 3,0.5 5.4,0.8c1.9,-1 4.5,-1.8 6.9,-3.4c3.4,-2.1 5,-5.2 6.4,-8.4c1.7,-3.9 3.2,-8 5.1,-11.9c0.7,-1.4 1.9,-2.5 2.6,-3.4c2.7,-6.4 6.8,-11.9 6.3,-19c2.1,-2.6 4.7,-4.9 6.4,-8.2c1.6,-3.1 4.8,-5.5 8.6,-6.5c1.4,-0.4 1.8,-2.2 3.3,-2.7c1,-0.4 2.6,-0.4 3,-1.1c1.4,-2.6 4.5,-3.3 5.8,-6c1.1,-2.1 2.7,-3.9 4.1,-5.8c0.4,-0.5 0.7,-1.1 0.8,-1.7c0.5,-3.5 3,-5.9 5.7,-7.5c2.5,-1.5 3.1,-3.3 3.4,-5.7c0,-0.3 0,-0.7 0,-1c0,-0.1 0.2,-0.2 0.3,-0.4c0.5,-0.5 0.9,-0.9 1.6,-1.6c0,-1.3 0,-2.7 0,-3.7c1.7,-2.7 3.1,-5 5.3,-6.8c2.5,-2 4.9,-3.7 8.1,-2.9c1.8,-3.3 5.9,-4.2 6.8,-7.7c2.1,-1.1 4.2,-2.1 6.7,-3.4c1.8,0 4.2,0 6.3,0c1.4,-1.1 2.6,-2.1 3.9,-3c1.3,-0.9 2.8,-1.7 3,-3.6c1.2,-0.5 2.4,-1.1 3.8,-1.7c0,-0.6 0.1,-1.2 0.1,-1.8c2.6,-3.9 6.1,-7.2 8.4,-11.5c1.6,-2.9 4.8,-4.9 7.3,-7.3c0.7,-0.7 1.4,-1.5 2.2,-2.1c0.9,-0.7 2,-1.7 3,-1.7c1.6,0 2.3,-1 3.3,-1.9c1.4,-1 3.6,1.1 4.7,-1.2c1.3,0 2.7,0 4,0c0.4,0.3 0.8,0.8 1.3,1c1.2,0.3 2.6,0.1 3.7,0.6c4.9,2.3 7.5,6.8 9.9,11.3c0.5,0.9 0.1,2.6 0.7,3.1c1.7,1.4 1.8,3.5 2.1,5.1c0.4,1.7 1.7,2.3 2.1,3.6c0.5,1.8 -0.9,4 1,5.6c0.3,3.8 0.6,7.5 -2.5,9.8c-0.6,3.5 -1,6.5 -1.5,9.5c-0.6,0.6 -1.2,1.2 -1.9,1.9c0,2.9 0,6.1 0,9.2c-1.1,0.6 -2,1.2 -2.9,1.7c0,1 0,2 0,3.6c0.8,0.7 2,1.6 3.1,2.5c0,1.1 0,2.1 0,3c0.7,0.7 1.3,1.3 1.9,1.9c0,4.3 0.1,8.6 0,13c-0.1,2.4 0.5,4.4 2.1,6.2c1.4,1.5 3.3,3.1 3.8,4.9c1,3.9 3.6,7.3 3.3,11.5c1.6,0.7 3.4,0.8 4,1.8c1.2,1.9 3.2,2.9 4.7,4.4c1.8,1.7 3.9,3.1 5.9,4.5c2.3,3.4 5.5,6 8.4,8.9c3,3 6.3,5.7 9.2,8.3c2.6,0.5 4.9,1 7.4,1.4c1.4,1.1 2.8,2.6 4.5,3.3c2.1,0.9 2.9,2.9 4,4.4c1.2,1.8 2.7,2.9 4.5,4c0.3,3.2 2.1,5.7 4.2,7.9c0.5,1.4 0.5,3.4 0.5,5.4z" id="svg_4"/>
    <path class="st0" fill="#ffffff" d="m242,164c-2.1,-2.3 -4,-4.7 -4.2,-7.9c-1.8,-1.1 -3.3,-2.2 -4.5,-4c-1,-1.5 -1.9,-3.5 -4,-4.4c-1.7,-0.7 -3.1,-2.2 -4.5,-3.3c-2.4,-0.5 -4.8,-0.9 -7.4,-1.4c-3,-2.6 -6.2,-5.3 -9.2,-8.3c-2.9,-2.9 -6.1,-5.5 -8.4,-8.9c-2,-1.5 -4.1,-2.8 -5.9,-4.5c-1.5,-1.5 -3.5,-2.5 -4.7,-4.4c-0.6,-1 -2.4,-1.1 -4,-1.8c0.3,-4.2 -2.3,-7.6 -3.3,-11.5c-0.5,-1.8 -2.4,-3.4 -3.8,-4.9c-1.6,-1.8 -2.2,-3.8 -2.1,-6.2c0.1,-4.3 0,-8.7 0,-13c-0.6,-0.6 -1.2,-1.2 -1.9,-1.9c0,-0.9 0,-1.8 0,-3c-1.1,-0.9 -2.2,-1.9 -3.1,-2.5c0,-1.6 0,-2.6 0,-3.6c0.9,-0.5 1.9,-1.1 2.9,-1.7c0,-3.2 0,-6.3 0,-9.2c0.8,-0.8 1.4,-1.4 1.9,-1.9c0.5,-3 1,-6 1.5,-9.5c3.1,-2.2 2.8,-6 2.5,-9.8c-1.8,-1.6 -0.4,-3.8 -1,-5.6c-0.4,-1.3 -1.8,-2 -2.1,-3.6c-0.4,-1.6 -0.5,-3.7 -2.1,-5.1c-0.7,-0.5 -0.2,-2.2 -0.7,-3.1c-2.4,-4.5 -5,-9 -9.9,-11.3c-1.1,-0.5 -2.5,-0.4 -3.7,-0.6c-0.5,-0.1 -0.9,-0.6 -1.3,-1c27.7,0 55.3,0 83,0c0,52.6 0,105.2 0,157.9z" id="svg_5"/>
   </g>
  </g>
 </g>
</svg>